<svg width="173" height="51" viewBox="0 0 173 51" fill="none" xmlns="http://www.w3.org/2000/svg">
<path d="M5.2565 19.0085C5.2565 21.3547 5.71748 23.5013 6.57751 25.2489C7.96732 23.1986 8.75855 20.7905 8.75855 18.2792C8.75855 16.0362 8.13244 14.8115 7.07289 14.8115C6.01333 14.8115 5.2565 16.1326 5.2565 19.0085ZM19.3128 15.4101C17.6272 15.4101 16.3406 14.1579 16.3406 12.4379C16.3406 10.7178 17.6272 9.5 19.3128 9.5C20.9985 9.5 22.3195 10.7522 22.3195 12.4379C22.3195 14.1235 21.0329 15.4101 19.3128 15.4101ZM16.1892 27.6501C17.008 26.3635 16.9873 24.4232 16.9667 23.2123C16.9667 22.9165 16.946 22.4417 17.008 22.428C17.1593 22.4073 17.0974 25.2351 18.5904 27.9872C18.8931 28.5376 18.9826 28.6959 19.0927 29.0812C19.6362 31.0627 16.6639 32.8653 16.1961 33.1267C12.5702 35.0463 9.32961 34.4065 6.04773 32.253C4.76113 33.113 3.37132 33.8079 1.85078 34.3308L0 30.4641C1.02516 30.065 2.01591 29.5421 2.90346 28.9436C1.23156 26.4116 0.302731 23.1091 0.302731 19.3731C0.302731 13.4974 3.04795 10.1605 7.17609 10.1605C11.3042 10.1605 13.7467 13.1672 13.7467 18.2861C13.7467 22.1184 12.295 25.8474 9.8181 28.8541C10.1896 29.0949 10.7607 29.4045 11.5106 29.5353C13.2513 29.8449 15.281 29.088 16.1961 27.6501H16.1892ZM21.7691 28.9436C21.7691 29.2394 21.831 30.0169 22.0512 30.4572C22.4777 31.386 23.8813 31.5236 24.2597 31.3654C24.2597 31.3654 24.9753 31.1934 25.5051 30.5123C25.6289 30.3746 26.0555 29.6729 26.138 29.5284C26.255 29.2463 27.521 28.4895 27.7549 28.5583C28.0232 28.6202 28.1677 28.9092 28.2503 29.1775C28.5805 30.2646 28.3879 31.4892 27.7962 32.4594C27.6861 32.6382 26.8398 34.0212 25.1473 34.5028C24.9409 34.5647 24.5418 34.6542 23.9295 34.6679C23.4616 34.6748 20.4756 34.723 18.5216 32.4731C16.3062 29.9894 17.118 27.4987 16.9804 24.6709C16.9804 22.3936 16.9804 20.1093 16.9804 17.832H21.8035C21.7897 22.9027 21.7828 27.9734 21.7691 33.0442C20.5926 32.363 19.4092 31.6819 18.2326 31.0076L17.4001 28.9092C20.7852 28.6133 21.7347 28.7303 21.7828 28.9504L21.7691 28.9436ZM45.0931 29.6316C45.3133 29.3701 45.5059 29.0812 46.593 28.6959C47.109 28.5307 47.3705 28.4551 47.6594 28.5445C47.8796 28.6133 48.0654 28.7784 48.1961 28.9642C48.5814 29.5077 48.5195 30.299 48.5195 30.299C48.0103 33.113 45.4715 34.262 42.7607 34.3308C38.2817 34.2413 37.5179 31.4136 37.6143 29.3839V25.4553C37.6143 23.405 36.3139 22.084 34.3393 22.084C34.1535 22.084 32.6743 22.0977 31.6697 23.1298C30.9267 23.8935 31.023 24.7053 30.4726 29.6866C30.4244 30.1338 30.335 30.8631 29.9153 31.6819C29.4543 32.5694 28.8144 33.1543 28.3741 33.4845C27.9888 33.7253 27.1425 34.2207 26.0761 34.4684C24.9959 34.6954 24.6657 34.6679 24.0671 34.6679C23.7231 34.1244 23.7437 33.9249 23.7368 33.4432C23.668 33.1611 23.4891 33.0923 23.5304 32.9685C23.5511 32.8653 23.9364 32.7759 24.0946 32.5144C24.418 31.964 23.9983 32.1429 24.762 31.6957C24.7757 31.6819 25.3674 31.2966 25.6358 30.6843C25.8491 30.1889 25.9523 29.1362 25.9385 28.9917C25.9591 28.3656 25.9729 25.9988 25.9179 22.7789V17.8251H30.734V19.4763C34.8553 15.362 42.3754 17.6806 42.4304 23.9623C42.4304 23.9623 42.4304 28.3243 42.4304 28.3312C42.4304 28.6683 42.5199 28.9436 42.6712 29.1637C42.9671 29.5765 43.4694 29.6797 43.6758 29.721C43.951 29.7761 44.4808 29.893 44.9211 29.6041C46.0976 28.7096 45.327 26.9896 45.7398 26.2465C45.9325 26.1846 46.1114 27.0928 46.9439 27.6363C47.4737 27.9872 47.7007 27.7946 48.1892 28.1936C48.6639 28.572 48.9736 29.5697 48.9736 29.5697C49.1524 30.1407 49.4208 30.6636 49.579 31.2072L45.0931 29.6316ZM54.1131 34.7298C42.0245 34.5922 42.0176 17.2472 54.0787 17.0958C59.7549 17.0132 64 21.9188 63.0299 27.4574H50.1501C50.9344 31.0076 55.9639 31.6888 57.7459 28.8335H62.8992C61.647 32.425 58.2756 34.7367 54.1131 34.7367V34.7298ZM54.0787 20.9762C52.166 20.9762 50.7074 22.1665 50.1845 24.0173H58.0142C57.4844 22.1665 55.9983 20.9762 54.0856 20.9762H54.0787Z" fill="#4D3F54"/>
<path d="M72.4977 34.8124C70.812 34.8124 69.3809 34.4271 68.2182 33.6634C67.0554 32.8997 66.2435 31.8608 65.7826 30.5604C65.3353 29.2394 65.3216 27.7464 65.7344 26.0951L69.0576 12.8369H73.5022L70.1102 26.4323C69.9038 27.2785 69.8969 28.0147 70.0827 28.6546C70.2754 29.2944 70.6194 29.7967 71.1079 30.1614C71.617 30.5123 72.2293 30.6843 72.9449 30.6843C73.9012 30.6843 74.7131 30.3884 75.3805 29.8036C76.0616 29.1981 76.5364 28.4 76.7909 27.4161L80.4237 12.8438H84.7239L80.9466 27.939C80.4031 30.0857 79.3917 31.7782 77.9124 33.0029C76.4469 34.2138 74.6374 34.8193 72.4908 34.8193L72.4977 34.8124ZM80.864 41.5L86.2375 19.9992H89.8221L89.5125 21.217C90.0836 20.7561 90.7234 20.3777 91.4252 20.0956C92.127 19.8066 92.8769 19.669 93.6682 19.669C94.8172 19.669 95.8423 19.958 96.7505 20.529C97.6587 21.0863 98.3743 21.85 98.8972 22.8201C99.42 23.7903 99.6884 24.8911 99.6884 26.1158C99.6884 27.2648 99.4545 28.3519 98.9935 29.3908C98.5325 30.409 97.8995 31.3172 97.1083 32.1153C96.3308 32.9135 95.4364 33.5396 94.4319 34.0005C93.4274 34.4477 92.3816 34.6679 91.3014 34.6679C90.5033 34.6679 89.7464 34.5372 89.0309 34.2826C88.3153 34.0281 87.6755 33.6703 87.1182 33.2093L85.0128 41.5H80.8572H80.864ZM91.6179 30.987C92.3816 30.987 93.0833 30.7875 93.7163 30.3884C94.3562 29.9756 94.8653 29.4389 95.2437 28.7853C95.629 28.1317 95.8148 27.4299 95.8148 26.68C95.8148 26.0401 95.6703 25.4759 95.3882 24.9805C95.1199 24.4714 94.7346 24.0655 94.2392 23.7627C93.7439 23.46 93.1728 23.3086 92.5192 23.3086C91.7555 23.3086 91.0537 23.515 90.4138 23.9279C89.774 24.3269 89.2648 24.8498 88.8864 25.5034C88.5011 26.1571 88.3153 26.8657 88.3153 27.6294C88.3153 28.2693 88.453 28.8404 88.7213 29.3495C89.0103 29.8449 89.3955 30.2439 89.8909 30.5467C90.4001 30.8356 90.9711 30.9732 91.611 30.9732L91.6179 30.987Z" fill="#4D3F54"/>
<path d="M109.256 38V14.25H116.434C118.087 14.25 119.486 14.4963 120.63 14.9889C121.791 15.4815 122.723 16.1324 123.427 16.9417C124.131 17.7333 124.641 18.6042 124.957 19.5542C125.292 20.4866 125.459 21.4102 125.459 22.325C125.459 23.2222 125.3 24.1458 124.984 25.0958C124.667 26.0282 124.148 26.8991 123.427 27.7083C122.723 28.5 121.8 29.1421 120.656 29.6347C119.512 30.1273 118.105 30.3736 116.434 30.3736H113.848V38H109.256ZM113.848 26.2569H116.17C117.296 26.2569 118.184 26.0634 118.835 25.6764C119.504 25.2718 119.979 24.7704 120.26 24.1722C120.559 23.5741 120.709 22.9583 120.709 22.325C120.709 21.7093 120.568 21.1023 120.287 20.5042C120.005 19.8884 119.53 19.3782 118.862 18.9736C118.211 18.569 117.313 18.3667 116.17 18.3667H113.848V26.2569ZM127.855 38V14.25H135.112C136.836 14.25 138.305 14.5931 139.519 15.2792C140.75 15.9653 141.691 16.8801 142.342 18.0236C142.993 19.1495 143.319 20.3898 143.319 21.7444C143.319 22.9759 143.046 24.0931 142.501 25.0958C141.973 26.0986 141.216 26.9255 140.231 27.5764L146.512 38H141.313L136.035 28.975H132.446V38H127.855ZM132.446 25.0167H135.006C135.868 25.0167 136.572 24.8583 137.117 24.5417C137.663 24.2074 138.067 23.794 138.331 23.3014C138.595 22.7912 138.727 22.2722 138.727 21.7444C138.727 20.812 138.384 20.0468 137.698 19.4486C137.012 18.8329 136.114 18.525 135.006 18.525H132.446V25.0167ZM158.564 38.475C156.823 38.475 155.195 38.1583 153.682 37.525C152.169 36.8741 150.832 35.9856 149.671 34.8597C148.528 33.7338 147.63 32.4231 146.98 30.9278C146.329 29.4324 146.003 27.8315 146.003 26.125C146.003 24.4185 146.329 22.8176 146.98 21.3222C147.63 19.8269 148.528 18.5162 149.671 17.3903C150.832 16.2644 152.169 15.3847 153.682 14.7514C155.195 14.1005 156.823 13.775 158.564 13.775C160.306 13.775 161.933 14.1005 163.446 14.7514C164.959 15.3847 166.287 16.2644 167.431 17.3903C168.592 18.5162 169.498 19.8269 170.149 21.3222C170.8 22.8176 171.125 24.4185 171.125 26.125C171.125 27.8315 170.8 29.4324 170.149 30.9278C169.498 32.4231 168.592 33.7338 167.431 34.8597C166.287 35.9856 164.959 36.8741 163.446 37.525C161.933 38.1583 160.306 38.475 158.564 38.475ZM158.564 33.8833C159.989 33.8833 161.273 33.5403 162.417 32.8542C163.561 32.1505 164.467 31.2093 165.135 30.0306C165.821 28.8519 166.164 27.55 166.164 26.125C166.164 24.6824 165.821 23.3806 165.135 22.2194C164.467 21.0407 163.561 20.1083 162.417 19.4222C161.273 18.7185 159.989 18.3667 158.564 18.3667C157.139 18.3667 155.846 18.7185 154.685 19.4222C153.542 20.1083 152.636 21.0407 151.967 22.2194C151.298 23.3806 150.964 24.6824 150.964 26.125C150.964 27.55 151.298 28.8519 151.967 30.0306C152.636 31.2093 153.542 32.1505 154.685 32.8542C155.846 33.5403 157.139 33.8833 158.564 33.8833Z" fill="#FFCF70"/>
</svg>
