<svg width="145" height="47" viewBox="0 0 145 47" fill="none" xmlns="http://www.w3.org/2000/svg">
<path d="M7.64 13.82C7.64 17.23 8.31 20.35 9.56 22.89C11.58 19.91 12.73 16.41 12.73 12.76C12.73 9.5 11.82 7.72 10.28 7.72C8.74 7.72 7.64 9.64 7.64 13.82ZM28.07 8.59C25.62 8.59 23.75 6.77 23.75 4.27C23.75 1.77 25.62 0 28.07 0C30.52 0 32.44 1.82 32.44 4.27C32.44 6.72 30.57 8.59 28.07 8.59ZM23.53 26.38C24.72 24.51 24.69 21.69 24.66 19.93C24.66 19.5 24.63 18.81 24.72 18.79C24.94 18.76 24.85 22.87 27.02 26.87C27.46 27.67 27.59 27.9 27.75 28.46C28.54 31.34 24.22 33.96 23.54 34.34C18.27 37.13 13.56 36.2 8.79 33.07C6.92 34.32 4.9 35.33 2.69 36.09L0 30.47C1.49 29.89 2.93 29.13 4.22 28.26C1.79 24.58 0.44 19.78 0.44 14.35C0.44 5.81 4.43 0.96 10.43 0.96C16.43 0.96 19.98 5.33 19.98 12.77C19.98 18.34 17.87 23.76 14.27 28.13C14.81 28.48 15.64 28.93 16.73 29.12C19.26 29.57 22.21 28.47 23.54 26.38H23.53ZM31.64 28.26C31.64 28.69 31.73 29.82 32.05 30.46C32.67 31.81 34.71 32.01 35.26 31.78C35.26 31.78 36.3 31.53 37.07 30.54C37.25 30.34 37.87 29.32 37.99 29.11C38.16 28.7 40 27.6 40.34 27.7C40.73 27.79 40.94 28.21 41.06 28.6C41.54 30.18 41.26 31.96 40.4 33.37C40.24 33.63 39.01 35.64 36.55 36.34C36.25 36.43 35.67 36.56 34.78 36.58C34.1 36.59 29.76 36.66 26.92 33.39C23.7 29.78 24.88 26.16 24.68 22.05C24.68 18.74 24.68 15.42 24.68 12.11H31.69C31.67 19.48 31.66 26.85 31.64 34.22C29.93 33.23 28.21 32.24 26.5 31.26L25.29 28.21C30.21 27.78 31.59 27.95 31.66 28.27L31.64 28.26ZM65.54 29.26C65.86 28.88 66.14 28.46 67.72 27.9C68.47 27.66 68.85 27.55 69.27 27.68C69.59 27.78 69.86 28.02 70.05 28.29C70.61 29.08 70.52 30.23 70.52 30.23C69.78 34.32 66.09 35.99 62.15 36.09C55.64 35.96 54.53 31.85 54.67 28.9V23.19C54.67 20.21 52.78 18.29 49.91 18.29C49.64 18.29 47.49 18.31 46.03 19.81C44.95 20.92 45.09 22.1 44.29 29.34C44.22 29.99 44.09 31.05 43.48 32.24C42.81 33.53 41.88 34.38 41.24 34.86C40.68 35.21 39.45 35.93 37.9 36.29C36.33 36.62 35.85 36.58 34.98 36.58C34.48 35.79 34.51 35.5 34.5 34.8C34.4 34.39 34.14 34.29 34.2 34.11C34.23 33.96 34.79 33.83 35.02 33.45C35.49 32.65 34.88 32.91 35.99 32.26C36.01 32.24 36.87 31.68 37.26 30.79C37.57 30.07 37.72 28.54 37.7 28.33C37.73 27.42 37.75 23.98 37.67 19.3V12.1H44.67V14.5C50.66 8.52 61.59 11.89 61.67 21.02C61.67 21.02 61.67 27.36 61.67 27.37C61.67 27.86 61.8 28.26 62.02 28.58C62.45 29.18 63.18 29.33 63.48 29.39C63.88 29.47 64.65 29.64 65.29 29.22C67 27.92 65.88 25.42 66.48 24.34C66.76 24.25 67.02 25.57 68.23 26.36C69 26.87 69.33 26.59 70.04 27.17C70.73 27.72 71.18 29.17 71.18 29.17C71.44 30 71.83 30.76 72.06 31.55L65.54 29.26ZM78.65 36.67C61.08 36.47 61.07 11.26 78.6 11.04C86.85 10.92 93.02 18.05 91.61 26.1H72.89C74.03 31.26 81.34 32.25 83.93 28.1H91.42C89.6 33.32 84.7 36.68 78.65 36.68V36.67ZM78.6 16.68C75.82 16.68 73.7 18.41 72.94 21.1H84.32C83.55 18.41 81.39 16.68 78.61 16.68H78.6Z" fill="#4D3F54"/>
<path d="M105.37 36.7901C102.92 36.7901 100.84 36.2301 99.1498 35.1201C97.4598 34.0101 96.2798 32.5001 95.6098 30.6101C94.9598 28.6901 94.9398 26.5201 95.5398 24.1201L100.37 4.8501H106.83L101.9 24.6101C101.6 25.8401 101.59 26.9101 101.86 27.8401C102.14 28.7701 102.64 29.5001 103.35 30.0301C104.09 30.5401 104.98 30.7901 106.02 30.7901C107.41 30.7901 108.59 30.3601 109.56 29.5101C110.55 28.6301 111.24 27.4701 111.61 26.0401L116.89 4.8601H123.14L117.65 26.8001C116.86 29.9201 115.39 32.3801 113.24 34.1601C111.11 35.9201 108.48 36.8001 105.36 36.8001L105.37 36.7901ZM117.53 46.5101L125.34 15.2601H130.55L130.1 17.0301C130.93 16.3601 131.86 15.8101 132.88 15.4001C133.9 14.9801 134.99 14.7801 136.14 14.7801C137.81 14.7801 139.3 15.2001 140.62 16.0301C141.94 16.8401 142.98 17.9501 143.74 19.3601C144.5 20.7701 144.89 22.3701 144.89 24.1501C144.89 25.8201 144.55 27.4001 143.88 28.9101C143.21 30.3901 142.29 31.7101 141.14 32.8701C140.01 34.0301 138.71 34.9401 137.25 35.6101C135.79 36.2601 134.27 36.5801 132.7 36.5801C131.54 36.5801 130.44 36.3901 129.4 36.0201C128.36 35.6501 127.43 35.1301 126.62 34.4601L123.56 46.5101H117.52H117.53ZM133.16 31.2301C134.27 31.2301 135.29 30.9401 136.21 30.3601C137.14 29.7601 137.88 28.9801 138.43 28.0301C138.99 27.0801 139.26 26.0601 139.26 24.9701C139.26 24.0401 139.05 23.2201 138.64 22.5001C138.25 21.7601 137.69 21.1701 136.97 20.7301C136.25 20.2901 135.42 20.0701 134.47 20.0701C133.36 20.0701 132.34 20.3701 131.41 20.9701C130.48 21.5501 129.74 22.3101 129.19 23.2601C128.63 24.2101 128.36 25.2401 128.36 26.3501C128.36 27.2801 128.56 28.1101 128.95 28.8501C129.37 29.5701 129.93 30.1501 130.65 30.5901C131.39 31.0101 132.22 31.2101 133.15 31.2101L133.16 31.2301Z" fill="#4D3F54"/>
</svg>
