<svg width="40" height="40" viewBox="0 0 40 40" fill="none" xmlns="http://www.w3.org/2000/svg">
<g clip-path="url(#clip0_472_7367)">
<path d="M39.6016 11.9995C39.6016 11.9995 39.2109 9.2417 38.0078 8.03076C36.4844 6.43701 34.7812 6.4292 34 6.33545C28.4063 5.9292 20.0078 5.9292 20.0078 5.9292H19.9922C19.9922 5.9292 11.5938 5.9292 6 6.33545C5.21875 6.4292 3.51562 6.43701 1.99219 8.03076C0.789063 9.2417 0.40625 11.9995 0.40625 11.9995C0.40625 11.9995 0 15.2417 0 18.4761V21.5073C0 24.7417 0.398437 27.9839 0.398437 27.9839C0.398437 27.9839 0.789062 30.7417 1.98437 31.9526C3.50781 33.5464 5.50781 33.4917 6.39844 33.6636C9.60156 33.9683 20 34.062 20 34.062C20 34.062 28.4063 34.0464 34 33.6479C34.7812 33.5542 36.4844 33.5464 38.0078 31.9526C39.2109 30.7417 39.6016 27.9839 39.6016 27.9839C39.6016 27.9839 40 24.7495 40 21.5073V18.4761C40 15.2417 39.6016 11.9995 39.6016 11.9995ZM15.8672 25.187V13.9448L26.6719 19.5854L15.8672 25.187Z" fill="#2F2F2F"/>
</g>
<defs>
<clipPath id="clip0_472_7367">
<rect width="40" height="40" fill="white"/>
</clipPath>
</defs>
</svg>
